<?xml version="1.0" encoding="utf-8"?>
<!-- Generator: Adobe Illustrator 25.4.0, SVG Export Plug-In . SVG Version: 6.00 Build 0)  -->
<svg version="1.1" id="레이어_1" xmlns="http://www.w3.org/2000/svg" xmlns:xlink="http://www.w3.org/1999/xlink" x="0px"
	 y="0px" viewBox="0 0 340 53" style="enable-background:new 0 0 340 53;" xml:space="preserve">
<style type="text/css">
	.st0{display:none;enable-background:new    ;}
	.st1{font-family:'FugazOne-Regular';}
	.st2{font-size:42.8257px;}
	.st3{stroke:#000000;stroke-width:0.25;stroke-miterlimit:10;}
</style>
<text transform="matrix(1 0 0 1 68.7646 39.8774)" class="st0 st1 st2">cooking class</text>
<g>
	<g>
		<path d="M72.16,38.51c-5.94,0-8.91-2.06-8.91-6.17c0-0.57,0.06-1.18,0.17-1.84l0.9-5.31c0.46-2.74,1.71-4.84,3.75-6.3
			c2.04-1.46,4.63-2.2,7.77-2.23c6.08,0,9.12,2.11,9.12,6.34c0,0.91-0.11,1.73-0.32,2.46s-0.44,1.22-0.66,1.48l-0.34,0.43h-7.28
			c0.71-0.63,1.07-1.37,1.07-2.23c0-1.54-0.77-2.31-2.31-2.31c-0.91,0-1.7,0.27-2.36,0.81c-0.66,0.54-1.09,1.37-1.28,2.48
			l-0.56,3.13c-0.06,0.29-0.09,0.56-0.09,0.81c0,1.51,0.94,2.27,2.83,2.27c0.63,0,1.19-0.2,1.69-0.6s0.79-0.84,0.88-1.33l7.11,0.09
			C82.4,35.84,78.67,38.51,72.16,38.51z"/>
		<path d="M99.44,16.71c3.08,0,5.41,0.67,6.98,2.01c1.23,1.06,1.84,2.53,1.84,4.41c0,0.63-0.07,1.31-0.21,2.06l-0.9,5.01
			c-0.54,3.03-1.81,5.17-3.79,6.42c-1.98,1.26-4.63,1.88-7.94,1.88s-5.74-0.63-7.28-1.88c-1.14-0.94-1.71-2.36-1.71-4.24
			c0-0.66,0.07-1.38,0.21-2.18l0.9-5.01C88.53,19.54,92.5,16.71,99.44,16.71z M100.6,26.04c0.06-0.29,0.09-0.65,0.09-1.09
			s-0.19-0.94-0.56-1.48c-0.37-0.54-1.02-0.81-1.95-0.81s-1.71,0.31-2.33,0.92c-0.63,0.61-1.03,1.43-1.2,2.46l-0.56,3.21
			C94.03,29.54,94,29.9,94,30.34s0.19,0.92,0.56,1.43c0.37,0.51,1.02,0.77,1.95,0.77s1.71-0.32,2.33-0.96
			c0.63-0.64,1.03-1.42,1.2-2.33L100.6,26.04z"/>
		<path d="M123.17,16.71c3.08,0,5.41,0.67,6.98,2.01c1.23,1.06,1.84,2.53,1.84,4.41c0,0.63-0.07,1.31-0.21,2.06l-0.9,5.01
			c-0.54,3.03-1.81,5.17-3.79,6.42c-1.98,1.26-4.63,1.88-7.94,1.88s-5.74-0.63-7.28-1.88c-1.14-0.94-1.71-2.36-1.71-4.24
			c0-0.66,0.07-1.38,0.21-2.18l0.9-5.01C112.26,19.54,116.23,16.71,123.17,16.71z M124.32,26.04c0.06-0.29,0.09-0.65,0.09-1.09
			s-0.19-0.94-0.56-1.48c-0.37-0.54-1.02-0.81-1.95-0.81s-1.71,0.31-2.33,0.92c-0.63,0.61-1.03,1.43-1.2,2.46l-0.56,3.21
			c-0.06,0.29-0.09,0.65-0.09,1.09s0.19,0.92,0.56,1.43c0.37,0.51,1.02,0.77,1.95,0.77s1.71-0.32,2.33-0.96
			c0.63-0.64,1.03-1.42,1.2-2.33L124.32,26.04z"/>
		<path d="M154.6,32.43c0.66,0,1.24-0.14,1.76-0.43l-0.21,4.84c-1.34,1.11-2.98,1.67-4.93,1.67c-1.94,0-3.38-0.51-4.3-1.54
			c-0.93-1.03-1.65-2.75-2.16-5.18l-0.13-0.6c-0.6,0.09-1.5,0.16-2.7,0.21l-1.16,6.51h-7.28l5.74-32.5h7.28l-2.48,14.09
			c1.68-1.86,3.97-2.78,6.85-2.78c1.94,0,3.38,0.48,4.3,1.43c0.93,0.96,1.39,2.23,1.39,3.83c0,3.08-1.61,5.5-4.84,7.24l0.47,1.58
			C152.52,31.88,153.32,32.43,154.6,32.43z M147.19,22.53c-1.54,0-2.91,0.73-4.11,2.18l-0.47,2.83c4.23-0.17,6.34-1.3,6.34-3.38
			c0-0.48-0.15-0.88-0.45-1.18S147.76,22.53,147.19,22.53z"/>
		<path d="M168.48,32.43c0.66,0,1.24-0.14,1.76-0.43l-0.21,4.84c-1.34,1.11-2.87,1.67-4.58,1.67c-2.6,0-4.28-0.6-5.05-1.8
			c-0.51-0.8-0.77-1.65-0.77-2.55c0-0.9,0.06-1.69,0.17-2.38l2.57-14.48h7.28l-2.4,13.49c-0.03,0.17-0.04,0.33-0.04,0.47
			C167.19,32.04,167.62,32.43,168.48,32.43z M163.21,10.33c0-1.83,0.41-3.16,1.22-4s2.08-1.26,3.79-1.26c2.4,0,3.6,1.06,3.6,3.17
			c0,1.8-0.41,3.11-1.22,3.94s-2.09,1.24-3.83,1.24C164.39,13.41,163.21,12.38,163.21,10.33z"/>
		<path d="M186.2,24.76c0-1.23-0.59-1.84-1.78-1.84s-2.16,0.44-2.93,1.33l-2.4,13.66h-7.28l3.64-20.6h6.77l-0.47,2.53
			c1.68-2.08,3.81-3.13,6.38-3.13s4.24,0.63,5.01,1.88c0.48,0.8,0.73,1.71,0.73,2.74s-0.07,1.98-0.21,2.87l-1.16,6.6
			c-0.03,0.17-0.04,0.33-0.04,0.47c0,0.77,0.43,1.16,1.29,1.16c0.66,0,1.24-0.14,1.76-0.43l-0.21,4.84
			c-1.34,1.11-2.87,1.67-4.58,1.67c-3.88,0-5.82-1.63-5.82-4.88c0-0.57,0.06-1.18,0.17-1.84l1.03-5.7
			C186.16,25.57,186.2,25.13,186.2,24.76z"/>
		<path d="M212.13,47.2c-2.24,2.11-4.8,3.17-7.69,3.17c-2.88,0-4.96-0.53-6.23-1.58c-1.27-1.06-1.91-2.44-1.91-4.15
			c0-2.51,1.6-4.7,4.8-6.55c-2.43-0.77-3.64-2.61-3.64-5.52c0-0.71,0.07-1.5,0.21-2.36l0.86-5.01c0.46-2.57,1.51-4.62,3.17-6.15
			c1.66-1.53,3.8-2.29,6.45-2.29c2.64,0,4.45,0.64,5.42,1.93l0.26-1.37h6.38l-3.77,21.28C215.81,42.22,214.38,45.09,212.13,47.2z
			 M205.43,44.25c1.86,0,3.07-1.69,3.64-5.05l0.43-2.48c-3.97,1.86-5.95,3.73-5.95,5.61c0,0.57,0.16,1.03,0.49,1.39
			C204.37,44.07,204.83,44.25,205.43,44.25z M205.13,29.26c-0.06,0.26-0.09,0.61-0.09,1.07s0.21,0.91,0.64,1.35s1.15,0.66,2.16,0.66
			c1.01,0,1.89-0.4,2.63-1.2l1.29-7.19c-0.4-0.71-1.16-1.07-2.27-1.07s-1.98,0.29-2.61,0.86s-1.03,1.34-1.2,2.31L205.13,29.26z"/>
		<path d="M239.52,38.51c-5.94,0-8.91-2.06-8.91-6.17c0-0.57,0.06-1.18,0.17-1.84l0.9-5.31c0.46-2.74,1.71-4.84,3.75-6.3
			c2.04-1.46,4.63-2.2,7.77-2.23c6.08,0,9.12,2.11,9.12,6.34c0,0.91-0.11,1.73-0.32,2.46s-0.44,1.22-0.66,1.48L251,27.37h-7.28
			c0.71-0.63,1.07-1.37,1.07-2.23c0-1.54-0.77-2.31-2.31-2.31c-0.91,0-1.7,0.27-2.36,0.81c-0.66,0.54-1.09,1.37-1.28,2.48
			l-0.56,3.13c-0.06,0.29-0.09,0.56-0.09,0.81c0,1.51,0.94,2.27,2.83,2.27c0.63,0,1.19-0.2,1.69-0.6s0.79-0.84,0.88-1.33l7.11,0.09
			C249.76,35.84,246.03,38.51,239.52,38.51z"/>
		<path d="M261.96,31.31c0,0.74,0.38,1.11,1.13,1.11c0.76,0,1.39-0.14,1.91-0.43l-0.21,4.84c-1.37,1.11-2.91,1.67-4.63,1.67
			c-2.6,0-4.28-0.6-5.05-1.8c-0.49-0.77-0.73-1.61-0.73-2.53c0-0.91,0.06-1.71,0.17-2.4l4.67-26.38h7.28l-4.5,25.4
			C261.98,30.97,261.96,31.14,261.96,31.31z"/>
		<path d="M287.31,31.31c0,0.74,0.38,1.11,1.13,1.11c0.76,0,1.39-0.14,1.91-0.43l-0.21,4.84c-1.37,1.11-2.91,1.67-4.63,1.67
			c-3.14,0-4.88-1.14-5.22-3.43c-1.43,2.28-3.53,3.43-6.3,3.43c-4.68,0-7.02-2.01-7.02-6.04c0-0.69,0.07-1.44,0.21-2.27l0.9-5.01
			c0.46-2.57,1.51-4.62,3.15-6.15c1.64-1.53,3.78-2.29,6.42-2.29s4.43,0.61,5.37,1.84l0.21-1.28h6.51l-2.4,13.49
			C287.33,30.97,287.31,31.14,287.31,31.31z M274.64,29.26c-0.06,0.26-0.09,0.61-0.09,1.07s0.21,0.91,0.64,1.35
			c0.43,0.44,1.15,0.66,2.16,0.66s1.89-0.4,2.63-1.2l1.28-7.19c-0.31-0.71-1.06-1.07-2.23-1.07c-2.2,0-3.48,1.06-3.85,3.17
			L274.64,29.26z"/>
		<path d="M313.99,21.76c0,0.94-0.29,1.81-0.86,2.61h-7.02c0.23-0.17,0.34-0.46,0.34-0.86c0-0.4-0.23-0.72-0.69-0.96
			s-1.04-0.36-1.76-0.36c-2.14,0-3.21,0.66-3.21,1.97c0,0.51,0.4,0.89,1.2,1.11c0.8,0.23,1.77,0.41,2.91,0.56
			c1.14,0.14,2.28,0.35,3.43,0.62c1.14,0.27,2.11,0.81,2.91,1.61c0.8,0.8,1.2,1.87,1.2,3.21c0,2.37-0.95,4.17-2.85,5.4
			s-4.66,1.84-8.29,1.84s-6.17-0.59-7.62-1.76c-1.14-0.91-1.71-2.17-1.71-3.77c0-0.46,0.04-0.93,0.13-1.41l7.15-0.09
			c-0.06,0.4,0.18,0.75,0.71,1.05s1.31,0.45,2.33,0.45s1.77-0.11,2.23-0.32c0.46-0.21,0.69-0.62,0.69-1.22c0-0.4-0.4-0.68-1.2-0.83
			c-0.8-0.16-1.78-0.29-2.93-0.41c-1.16-0.11-2.31-0.3-3.47-0.56s-2.13-0.8-2.93-1.63s-1.2-1.91-1.2-3.25c0-2.6,1.01-4.6,3.02-6
			c2.01-1.4,4.92-2.1,8.71-2.1C311.07,16.67,313.99,18.36,313.99,21.76z"/>
		<path d="M337.08,21.76c0,0.94-0.29,1.81-0.86,2.61h-7.02c0.23-0.17,0.34-0.46,0.34-0.86c0-0.4-0.23-0.72-0.69-0.96
			s-1.04-0.36-1.76-0.36c-2.14,0-3.21,0.66-3.21,1.97c0,0.51,0.4,0.89,1.2,1.11c0.8,0.23,1.77,0.41,2.91,0.56
			c1.14,0.14,2.28,0.35,3.43,0.62c1.14,0.27,2.11,0.81,2.91,1.61c0.8,0.8,1.2,1.87,1.2,3.21c0,2.37-0.95,4.17-2.85,5.4
			s-4.66,1.84-8.29,1.84s-6.17-0.59-7.62-1.76c-1.14-0.91-1.71-2.17-1.71-3.77c0-0.46,0.04-0.93,0.13-1.41l7.15-0.09
			c-0.06,0.4,0.18,0.75,0.71,1.05s1.31,0.45,2.33,0.45s1.77-0.11,2.23-0.32c0.46-0.21,0.69-0.62,0.69-1.22c0-0.4-0.4-0.68-1.2-0.83
			c-0.8-0.16-1.78-0.29-2.93-0.41c-1.16-0.11-2.31-0.3-3.47-0.56s-2.13-0.8-2.93-1.63s-1.2-1.91-1.2-3.25c0-2.6,1.01-4.6,3.02-6
			c2.01-1.4,4.92-2.1,8.71-2.1C334.15,16.67,337.08,18.36,337.08,21.76z"/>
	</g>
	<path class="st3" d="M42.07,50.46c1.11-0.52,1.98-1.25,2.58-2.33c0.48-0.87,0.62-1.81,0.62-2.79c-0.01-4.97,0-9.95-0.01-14.93
		c0-0.34,0.07-0.54,0.38-0.72c1.17-0.67,2.15-1.57,3.05-2.57c1.64-1.81,2.5-3.98,2.92-6.31c0.27-1.49,0.18-3.03-0.2-4.56
		c-0.62-2.5-1.77-4.61-3.53-6.29c-0.58-0.55-1.23-1.06-1.94-1.52c-2.52-1.62-5.29-2.31-8.29-1.92c-0.15,0.02-0.36-0.07-0.47-0.18
		c-0.02-0.02-0.03-0.03-0.05-0.05c-0.76-0.77-1.6-1.44-2.5-2.02C34.19,4,33.75,3.74,33.28,3.5c-1.46-0.73-3.01-1.16-4.62-1.33
		c-1.41-0.15-2.82-0.08-4.22,0.26c-1.46,0.35-2.85,0.85-4.1,1.64c-0.99,0.63-1.85,1.47-2.77,2.21c-0.15,0.12-0.33,0.25-0.5,0.25
		c-0.85,0-1.7-0.11-2.54-0.05c-0.4,0.03-0.79,0.08-1.17,0.15c-1.89,0.32-3.64,1.06-5.22,2.2C8.02,8.92,7.92,9.02,7.8,9.11
		c-1.27,0.99-2.32,2.19-3.15,3.6c-0.85,1.42-1.36,2.96-1.6,4.54c-0.42,2.81,0.16,5.49,1.58,7.98c1.03,1.8,2.42,3.26,4.19,4.34
		c0.46,0.28,0.62,0.56,0.62,1.1C9.42,35.8,9.39,40.95,9.45,46.09c0.02,1.8,1.02,3.12,2.53,4.06c0.96,0.6,2,0.75,3.11,0.75
		c4.08-0.02,8.15-0.01,12.23-0.01c4.15,0,8.29,0,12.42-0.01C40.53,50.88,41.31,50.82,42.07,50.46z M13.11,29.17
		c0.01-1.09-0.45-1.73-1.43-2.21c-2.48-1.22-4.11-3.19-4.77-5.9c-0.41-1.67-0.31-3.32,0.24-4.97c0.72-2.17,2.11-3.76,4.05-4.88
		c1.11-0.64,2.32-1.08,3.68-1.09c0,0,0,0,0,0c0,0,0.01,0,0.01,0c-0.25,0.73-0.55,1.41-0.72,2.12c-0.3,1.29-0.62,2.61-0.36,3.95
		c0.15,0.8,0.84,1.33,1.64,1.37c0.84,0.04,1.56-0.43,1.77-1.23c0.15-0.55,0.18-1.14,0.24-1.72c0.22-2.23,1.15-4.14,2.68-5.74
		c2.03-2.12,4.87-3.21,7.72-3.06c0.95,0.05,1.9,0.24,2.82,0.58c3.08,1.12,5.1,3.27,6.15,6.32c0.31,0.91,0.38,1.93,0.46,2.9
		c0.1,1.12,0.78,1.9,1.73,1.96c0.13,0.01,0.27,0,0.42-0.02c0.92-0.14,1.56-0.94,1.53-1.99c-0.05-1.76-0.32-3.48-1.08-5.09
		c-0.04-0.09-0.06-0.19-0.12-0.34c0,0,0.01,0,0.01,0c0,0,0,0,0,0c0.04,0,0.08,0.01,0.12,0.01c0.53,0.02,1.03,0.11,1.51,0.24
		c0.36,0.1,0.71,0.21,1.05,0.35c2.13,0.85,3.7,2.31,4.69,4.35c1.01,2.07,1.19,4.25,0.51,6.47c-0.79,2.57-2.45,4.39-4.86,5.53
		c-0.81,0.38-1.19,0.99-1.18,1.9c0.02,2.97,0.01,5.95,0.01,8.92c0,0.2,0,0.39,0,0.62c0,0-0.01,0-0.01,0c-9.52,0-18.98,0-28.52,0
		c0-0.23-0.01-0.43-0.01-0.63C13.09,34.98,13.08,32.08,13.11,29.17z M14.88,47.17c-0.18,0-0.37,0-0.55-0.02
		c-0.63-0.07-1.21-0.62-1.22-1.26c-0.03-1.18-0.01-2.37-0.01-3.61c9.52,0,18.98,0,28.44,0c0.02,0.06,0.06,0.11,0.06,0.15
		c0.01,1.11,0.03,2.23,0,3.35c-0.02,0.78-0.6,1.33-1.37,1.38c-0.13,0.01-0.27,0.01-0.4,0.01C31.51,47.17,23.2,47.17,14.88,47.17z"/>
	<path class="st3" d="M38.7,23.67c-0.71,0.13-1.17,0.77-1.39,1.65c-0.2,0.81-0.42,1.65-0.82,2.38c-0.6,1.09-1.36,2.09-2.04,3.13
		c-0.37,0.55-0.43,1.16-0.21,1.68c0.13,0.32,0.36,0.62,0.69,0.86c0.79,0.56,1.88,0.41,2.47-0.44c0.89-1.27,1.76-2.55,2.54-3.88
		c0.62-1.05,0.95-2.23,1.04-3.46c0.01-0.8-0.35-1.42-0.91-1.74C39.69,23.64,39.22,23.56,38.7,23.67z"/>
	<path class="st3" d="M15.42,30.26c0.58,0.95,1.25,1.85,1.92,2.74c0.66,0.88,1.91,0.93,2.68,0.16c0.75-0.74,0.75-1.65,0.05-2.61
		c-1.24-1.69-2.49-3.37-2.77-5.56c-0.09-0.7-0.6-1.2-1.32-1.34c-1.29-0.26-2.3,0.64-2.26,2.06c0.01,0.06,0.03,0.21,0.05,0.36
		C13.96,27.61,14.63,28.97,15.42,30.26z"/>
	<path class="st3" d="M25.5,25.54c-0.01,0.48-0.02,0.95-0.02,1.43c0,0.54,0.01,1.08,0.01,1.62c0,1.05-0.02,2.1,0.02,3.16
		c0.01,0.67,0.33,1.25,0.81,1.6c0.29,0.21,0.64,0.33,1.02,0.34c1,0.02,1.86-0.85,1.87-1.95c0.02-2.07,0.02-4.14,0-6.21
		c-0.01-0.57-0.16-1.12-0.66-1.5c-0.31-0.24-0.63-0.38-0.96-0.42c-0.33-0.04-0.66,0.01-1.01,0.16
		C25.81,24.11,25.52,24.76,25.5,25.54z"/>
</g>
</svg>
